<?xml version="1.0" standalone="no"?>
<!DOCTYPE svg PUBLIC "-//W3C//DTD SVG 20010904//EN"
 "http://www.w3.org/TR/2001/REC-SVG-20010904/DTD/svg10.dtd">
<svg version="1.0" xmlns="http://www.w3.org/2000/svg"
 width="1100.000000pt" height="577.000000pt" viewBox="0 0 1100.000000 577.000000"
 preserveAspectRatio="xMidYMid meet">

<g transform="translate(0.000000,577.000000) scale(0.100000,-0.100000)"
fill="#000000" stroke="none">
<path d="M5360 4739 c-369 -56 -696 -357 -792 -732 l-22 -83 -62 32 c-74 38
-142 49 -219 35 -75 -14 -165 -55 -165 -75 0 -23 64 -90 118 -125 26 -16 72
-37 102 -47 l56 -17 -47 -48 c-57 -59 -89 -135 -96 -235 -9 -120 17 -138 125
-84 72 36 133 93 163 151 l21 43 23 -92 c82 -323 327 -594 633 -698 528 -181
1087 135 1239 701 24 89 27 118 27 265 0 147 -3 176 -27 265 -48 179 -130 325
-256 458 -127 133 -294 229 -473 272 -81 19 -264 27 -348 14z m-460 -835 c274
-26 952 -26 1223 0 109 10 200 16 203 13 14 -13 26 -161 20 -247 -8 -136 -10
-141 -55 -135 -284 40 -1057 45 -1538 8 l-81 -6 -8 59 c-11 78 -11 205 -1 277
8 54 11 58 30 53 12 -3 105 -13 207 -22z"/>
<path d="M4900 3775 c0 -23 57 -72 106 -91 56 -21 132 -15 197 17 51 25 60 46
25 54 -31 6 -279 35 -306 35 -13 0 -22 -6 -22 -15z"/>
<path d="M5893 3771 c-73 -10 -135 -20 -139 -23 -20 -21 68 -68 142 -75 37 -4
67 -1 97 11 49 18 107 68 107 90 0 20 -29 19 -207 -3z"/>
<path d="M9193 2465 c-143 -39 -227 -147 -227 -295 -1 -152 52 -220 234 -300
159 -70 187 -102 140 -163 -50 -63 -169 -56 -246 14 -20 19 -21 19 -84 -73
l-64 -92 39 -33 c57 -49 135 -75 241 -81 217 -11 350 99 362 297 11 188 -53
269 -275 350 -34 13 -74 34 -88 47 -32 30 -33 73 -2 102 48 45 128 37 192 -19
l33 -29 62 87 62 87 -23 19 c-70 57 -182 98 -264 96 -22 0 -64 -7 -92 -14z"/>
<path d="M9731 2463 c-95 -47 -95 -199 0 -249 49 -25 123 -15 161 23 113 113
-17 297 -161 226z m142 -53 c41 -45 38 -101 -7 -146 -26 -26 -42 -34 -71 -34
-52 0 -105 53 -105 105 0 47 14 71 53 96 44 27 93 19 130 -21z"/>
<path d="M9750 2340 c0 -56 3 -70 15 -70 10 0 15 10 15 28 l1 27 17 -27 c19
-32 60 -40 46 -10 -4 9 -7 35 -6 56 2 49 -11 66 -54 66 l-34 0 0 -70z m55 20
c0 -7 -6 -15 -12 -17 -8 -3 -13 4 -13 17 0 13 5 20 13 18 6 -3 12 -11 12 -18z"/>
<path d="M1910 2449 c0 -5 4 -8 8 -5 4 2 14 0 22 -5 11 -8 -2 -9 -41 -5 -43 5
-60 2 -69 -9 -7 -8 -17 -12 -22 -9 -5 3 -17 -1 -26 -10 -12 -10 -22 -12 -32
-6 -12 8 -11 10 7 10 27 0 38 16 17 24 -24 9 -31 7 -14 -5 12 -8 12 -10 -5 -8
-34 2 -65 -13 -65 -32 0 -10 -4 -20 -9 -24 -6 -3 -8 -14 -6 -25 2 -12 0 -18
-6 -15 -5 4 -16 -10 -25 -30 -17 -42 -25 -43 -17 -2 3 15 14 32 25 38 16 9 17
13 6 27 -11 13 -11 14 1 7 9 -5 12 -4 7 3 -8 14 -36 4 -36 -12 0 -15 -44 -58
-52 -51 -2 3 -13 -5 -24 -17 -15 -18 -15 -20 -2 -9 15 11 19 11 24 -3 3 -9 10
-14 14 -11 4 2 8 -7 8 -22 l0 -27 -15 28 c-13 25 -16 26 -31 13 -9 -8 -23 -13
-30 -11 -7 1 -8 0 -2 -3 5 -2 10 -9 10 -14 0 -6 -4 -8 -9 -4 -6 3 -14 -2 -19
-12 -10 -21 -10 -43 1 -43 4 0 10 0 13 0 4 0 0 8 -7 18 -13 15 -12 16 4 3 12
-9 17 -10 17 -2 0 7 5 9 12 5 8 -5 9 -1 4 12 -6 16 -5 17 6 6 11 -11 10 -16
-4 -26 -10 -7 -18 -21 -18 -31 0 -10 -3 -15 -7 -12 -3 4 -12 2 -20 -4 -13 -11
-14 -10 -17 11 0 6 -4 10 -8 10 -5 0 -11 0 -14 0 -4 0 -1 -7 6 -15 10 -12 10
-15 -1 -15 -10 -1 -8 -4 4 -11 23 -14 22 -29 -3 -24 -14 3 -18 0 -13 -8 11
-18 12 -37 2 -37 -16 0 -10 -157 7 -198 14 -32 17 -34 23 -18 7 18 8 18 14 2
9 -24 9 -28 -3 -21 -5 3 -10 -2 -11 -12 0 -11 -3 -13 -6 -5 -2 6 -9 10 -14 7
-5 -4 -6 1 -3 9 3 9 1 16 -5 16 -14 0 -14 -13 1 -45 10 -22 20 -29 39 -27 3 1
6 -4 6 -11 0 -7 4 -20 8 -29 4 -11 3 -18 -4 -18 -6 0 -8 -7 -4 -15 5 -14 8
-14 27 2 20 17 20 17 7 0 -11 -14 -11 -21 -3 -29 9 -9 12 -9 12 1 0 7 5 9 11
5 8 -4 7 -9 -2 -15 -12 -8 -11 -11 1 -19 8 -5 10 -10 4 -10 -5 0 -15 5 -22 12
-7 7 -12 9 -12 5 0 -8 77 -87 86 -87 3 0 1 6 -5 13 -6 8 -8 16 -5 20 3 3 0 15
-6 27 -6 12 -13 34 -15 48 -4 27 -4 27 10 -3 8 -16 14 -36 15 -42 0 -7 8 -13
18 -14 9 0 12 -3 5 -5 -17 -7 -4 -34 16 -34 18 0 45 -36 37 -49 -6 -9 44 -35
52 -26 3 3 1 5 -4 5 -4 0 2 7 14 16 13 9 21 22 18 30 -3 8 0 14 5 14 6 0 9 -9
6 -20 -6 -22 7 -35 24 -24 8 4 7 9 -2 15 -8 5 -9 9 -3 9 18 0 24 -13 13 -27
-9 -10 -7 -13 9 -13 17 0 20 -5 16 -26 -3 -16 -1 -23 6 -19 5 3 47 6 93 6 97
0 136 7 115 21 -9 7 -4 8 15 3 19 -4 26 -2 22 5 -6 10 7 14 32 11 7 -1 10 5 7
13 -4 11 0 14 16 11 12 -2 23 2 27 10 3 8 9 12 15 9 5 -3 12 3 15 15 3 12 12
21 21 21 8 0 13 2 10 5 -3 4 -18 3 -32 -1 -23 -5 -25 -9 -14 -23 7 -9 9 -13 4
-9 -5 4 -18 3 -28 -3 -14 -8 -23 -8 -31 0 -7 7 -2 13 17 21 15 5 26 13 24 17
-26 55 -32 62 -40 51 -6 -10 -8 -9 -8 2 0 13 -1 13 -11 0 -9 -13 -10 -13 -6 0
6 23 29 19 54 -8 21 -23 22 -23 32 -4 8 15 7 23 -3 31 -7 6 -17 7 -21 3 -5 -4
-5 -2 -2 5 4 6 -6 24 -21 40 -25 25 -36 29 -57 24 -3 0 0 -11 6 -23 11 -21 11
-22 -4 -9 -14 11 -17 11 -17 0 0 -11 -2 -11 -10 1 -8 12 -10 12 -16 -3 -3 -9
-10 -14 -15 -11 -5 3 -9 1 -9 -5 0 -5 6 -12 13 -14 6 -3 2 -6 -10 -6 -13 -1
-23 -5 -23 -9 0 -4 -12 -9 -27 -10 -32 -3 -44 -12 -15 -12 11 0 24 -5 28 -12
5 -8 2 -9 -12 -4 -10 5 -50 12 -88 16 -55 6 -73 13 -87 31 -10 13 -16 26 -14
29 2 3 -5 12 -17 19 -16 10 -19 10 -12 -1 5 -7 9 -19 10 -26 2 -10 -1 -11 -12
-1 -11 9 -17 9 -29 -1 -10 -8 -15 -9 -15 -2 0 6 8 16 18 22 14 10 13 11 -8 6
l-25 -5 25 21 c22 18 23 20 4 14 -13 -4 -26 -1 -34 9 -7 8 -10 15 -6 15 4 0
-1 14 -9 30 -9 17 -20 28 -25 25 -5 -3 -12 0 -16 6 -4 7 -3 9 3 6 6 -4 9 10 9
36 -1 27 -5 41 -13 40 -9 -2 -10 4 -3 23 6 14 6 23 1 20 -5 -3 -11 3 -14 14
-3 11 -1 18 4 14 9 -5 13 19 11 71 -1 26 0 27 7 10 7 -14 10 -16 11 -5 5 49
30 105 47 105 13 0 113 91 113 103 0 22 49 31 101 18 28 -8 60 -11 72 -8 13 3
18 1 13 -6 -5 -8 -2 -10 8 -6 11 4 16 0 16 -12 0 -16 2 -17 10 -4 6 10 10 11
10 3 0 -7 7 -13 16 -13 8 0 12 -5 9 -10 -4 -6 -1 -9 7 -8 7 2 12 -3 10 -11 -3
-12 -1 -12 14 0 12 9 15 9 10 2 -13 -23 8 -13 34 14 18 19 20 25 8 20 -10 -3
-18 -4 -18 -1 0 5 52 28 60 26 3 0 6 8 6 19 0 13 -6 19 -17 17 -9 -2 -15 2
-15 7 1 6 8 10 16 10 8 1 14 7 12 14 -1 7 2 10 7 7 5 -3 12 1 15 10 3 8 2 12
-4 9 -6 -3 -13 1 -16 9 -3 9 -10 14 -15 11 -9 -6 -50 14 -61 30 -4 5 -2 13 5
17 7 4 4 7 -8 7 -11 0 -33 2 -50 5 -29 6 -29 5 3 -4 33 -11 39 -24 23 -49 -8
-12 -12 -11 -27 4 -17 17 -17 17 5 10 17 -5 22 -4 19 6 -2 7 -19 17 -37 21
-17 5 -29 13 -26 18 3 5 0 7 -7 5 -8 -3 -33 1 -57 10 -52 18 -51 18 -51 4z
m69 -51 c26 -16 27 -28 4 -28 -17 0 -83 35 -83 44 0 9 59 -3 79 -16z m-182
-24 c-3 -3 -12 -4 -19 -1 -8 3 -5 6 6 6 11 1 17 -2 13 -5z m23 -23 c0 -5 -9
-11 -20 -14 -20 -5 -26 3 -13 16 9 10 33 8 33 -2z m355 -1 l20 -9 -20 0 c-11
0 -27 4 -35 9 -13 9 -13 10 0 9 8 0 24 -4 35 -9z m-405 -5 c0 -2 -9 -9 -20
-15 -16 -9 -18 -8 -14 5 5 13 34 22 34 10z m237 -41 c-32 -21 -38 -22 -61 -10
l-26 13 29 13 c16 6 39 9 50 5 13 -4 21 -2 21 5 0 6 5 8 11 5 6 -4 -4 -17 -24
-31z m127 21 c-7 -17 -30 -20 -39 -6 -4 8 9 15 37 20 4 0 5 -6 2 -14z m-307
-1 c-3 -3 -12 -4 -19 -1 -8 3 -5 6 6 6 11 1 17 -2 13 -5z m-212 -33 c-8 -14
-32 -14 -40 -1 -3 5 0 7 8 4 8 -3 18 0 22 6 4 6 9 9 12 6 3 -2 2 -9 -2 -15z
m46 -4 c-10 -9 -11 -8 -5 6 3 10 9 15 12 12 3 -3 0 -11 -7 -18z m159 5 c0 -5
-11 -15 -25 -22 -14 -7 -25 -17 -25 -21 0 -4 -10 -6 -23 -3 -16 2 -24 -1 -24
-11 0 -18 9 -19 25 -3 9 9 12 9 12 0 0 -6 8 -9 18 -6 13 5 14 4 3 -4 -8 -6
-21 -8 -29 -4 -10 3 -13 1 -8 -7 9 -14 -32 -57 -54 -56 -8 0 -18 -3 -21 -8 -3
-5 -9 -2 -12 6 -4 11 -1 15 11 12 10 -2 25 3 35 10 15 11 15 14 3 24 -11 10
-17 8 -25 -6 -6 -10 -11 -13 -11 -7 0 6 6 17 14 23 10 9 16 8 26 -4 7 -8 17
-15 23 -15 5 0 2 9 -8 20 -10 11 -15 20 -11 20 4 0 4 5 1 10 -5 8 -11 7 -21
-1 -12 -10 -13 -9 -8 5 3 9 10 16 16 16 5 0 6 6 2 13 -6 10 -4 10 7 0 20 -19
53 -16 74 7 19 21 35 26 35 12z m115 -12 c3 -5 1 -10 -4 -10 -6 0 -11 5 -11
10 0 6 2 10 4 10 3 0 8 -4 11 -10z m204 -31 c-7 -4 -17 -5 -23 -2 -5 4 -7 -3
-4 -15 5 -16 2 -20 -15 -16 -12 2 -27 10 -35 18 -13 13 -11 14 12 12 18 -2 30
2 34 13 9 25 26 32 36 14 5 -10 4 -18 -5 -24z m-468 8 c-10 -9 -11 -8 -5 6 3
10 9 15 12 12 3 -3 0 -11 -7 -18z m379 15 c0 -4 -11 -9 -26 -10 -14 -1 -23 2
-19 8 7 12 45 14 45 2z m-477 -43 c4 -16 3 -18 -9 -8 -16 13 -19 29 -5 29 5 0
11 -9 14 -21z m24 -101 c-3 -8 -6 -5 -6 6 -1 11 2 17 5 13 3 -3 4 -12 1 -19z
m39 -42 c-2 -6 -5 -3 -5 7 -1 9 -5 17 -11 17 -5 0 -7 7 -3 17 5 14 8 12 15 -7
5 -13 7 -28 4 -34z m-116 36 c0 -4 -4 -12 -8 -19 -6 -9 -11 -8 -19 5 -9 15 -7
18 8 19 11 1 19 -1 19 -5z m140 -8 c0 -8 -4 -12 -10 -9 -5 3 -10 10 -10 16 0
5 5 9 10 9 6 0 10 -7 10 -16z m-85 -3 c3 -5 1 -12 -5 -16 -5 -3 -10 1 -10 9 0
18 6 21 15 7z m-78 -83 c-3 -8 -6 -5 -6 6 -1 11 2 17 5 13 3 -3 4 -12 1 -19z
m140 -170 c-3 -8 -6 -5 -6 6 -1 11 2 17 5 13 3 -3 4 -12 1 -19z m-17 -46 c0
-11 8 -23 18 -28 14 -7 17 -15 11 -34 -7 -24 -7 -24 -9 5 -2 30 -2 30 -10 5
l-8 -25 -1 28 c-1 15 -5 27 -9 27 -4 0 -8 9 -9 20 -1 11 2 20 8 20 5 0 9 -8 9
-18z m-44 -89 c-10 -10 -19 5 -10 18 6 11 8 11 12 0 2 -7 1 -15 -2 -18z m109
-3 c3 -5 1 -10 -4 -10 -6 0 -11 5 -11 10 0 6 2 10 4 10 3 0 8 -4 11 -10z m444
-23 c8 -10 7 -14 -2 -14 -8 0 -14 6 -14 14 0 7 1 13 2 13 2 0 8 -6 14 -13z
m-504 -27 c3 -5 1 -10 -4 -10 -6 0 -11 5 -11 10 0 6 2 10 4 10 3 0 8 -4 11
-10z m461 -2 c8 -9 -17 -42 -34 -46 -9 -2 -10 3 -4 15 5 10 7 23 5 30 -4 12
21 12 33 1z m-276 -48 c8 -5 11 -10 5 -10 -5 0 -17 5 -25 10 -8 5 -10 10 -5
10 6 0 17 -5 25 -10z m185 -42 c14 -6 25 -15 25 -19 0 -10 -40 -23 -47 -15 -4
3 1 6 10 6 10 0 17 5 17 10 0 6 -13 10 -29 10 -17 0 -33 5 -36 10 -8 14 28 13
60 -2z m-62 -23 c1 -6 -20 -11 -48 -12 l-50 -2 40 14 c44 15 56 15 58 0z m167
1 c0 -3 -4 -8 -10 -11 -5 -3 -10 -1 -10 4 0 6 5 11 10 11 6 0 10 -2 10 -4z
m-263 -48 c-3 -8 -6 -5 -6 6 -1 11 2 17 5 13 3 -3 4 -12 1 -19z m141 -10 c-3
-8 -24 -14 -49 -15 l-44 -2 35 14 c45 17 63 18 58 3z m57 -8 c-27 -12 -43 -12
-25 0 8 5 22 9 30 9 10 0 8 -3 -5 -9z m-8 -26 c-3 -3 -12 -4 -19 -1 -8 3 -5 6
6 6 11 1 17 -2 13 -5z"/>
<path d="M1960 2310 c-12 -8 -11 -10 8 -10 12 0 22 5 22 10 0 13 -11 13 -30 0z"/>
<path d="M2838 2453 c7 -3 16 -2 19 1 4 3 -2 6 -13 5 -11 0 -14 -3 -6 -6z"/>
<path d="M5280 1961 l0 -501 125 0 125 0 0 245 c0 135 2 245 5 245 5 0 113
-87 498 -397 l127 -103 0 500 0 500 -120 0 -120 0 0 -225 c0 -139 -4 -225 -10
-225 -5 0 -143 100 -307 223 -164 123 -304 226 -310 231 -10 6 -13 -96 -13
-493z"/>
<path d="M6530 1960 l0 -500 125 0 125 0 0 245 c0 135 3 245 6 245 5 0 341
-268 536 -427 43 -35 80 -63 83 -63 3 0 5 223 5 495 l0 495 -120 0 -120 0 -2
-229 -3 -229 -300 224 c-165 124 -308 230 -317 235 -17 9 -18 -17 -18 -491z"/>
<path d="M8260 2328 c-40 -73 -110 -200 -155 -283 -186 -340 -315 -581 -315
-588 0 -4 55 -7 123 -7 l122 0 49 90 50 90 199 -2 200 -3 49 -87 49 -88 125 0
126 0 -45 83 c-195 360 -500 923 -502 925 -2 2 -36 -57 -75 -130z m119 -423
c23 -41 41 -79 41 -85 0 -6 -34 -10 -90 -10 -49 0 -90 3 -90 6 0 11 85 164 92
164 3 0 25 -34 47 -75z"/>
<path d="M1798 2443 c6 -2 18 -2 25 0 6 3 1 5 -13 5 -14 0 -19 -2 -12 -5z"/>
<path d="M2800 2438 c0 -5 -25 -8 -56 -8 -34 0 -53 -4 -49 -10 3 -5 -1 -10
-10 -10 -9 0 -13 4 -10 10 3 6 -1 7 -9 4 -9 -3 -13 -11 -9 -17 4 -6 -2 -8 -15
-5 -15 4 -19 2 -15 -8 3 -9 -2 -14 -13 -14 -24 0 -51 -17 -41 -26 3 -4 12 -2
19 3 7 6 24 14 38 17 20 5 17 2 -10 -14 -19 -12 -26 -18 -15 -15 67 23 75 24
75 9 0 -10 -9 -14 -28 -12 -15 1 -33 -1 -40 -6 -6 -4 -19 -3 -28 2 -13 7 -30
-1 -70 -31 -30 -22 -51 -44 -48 -49 4 -6 10 -5 15 3 6 10 9 10 9 2 0 -6 -4
-15 -10 -18 -5 -3 -10 -11 -10 -16 0 -6 5 -7 10 -4 6 3 10 1 10 -4 0 -6 -5
-11 -12 -11 -9 0 -9 -3 0 -12 14 -14 -2 -48 -23 -48 -7 0 -15 -6 -18 -12 -2
-7 -8 -9 -13 -5 -5 5 -1 13 8 18 10 6 15 16 12 27 -4 11 -3 13 3 5 6 -8 14 -9
23 -3 12 8 12 10 1 10 -7 0 -11 6 -8 14 3 7 0 19 -6 25 -8 8 -7 11 3 11 7 0
11 3 7 6 -3 3 -15 0 -26 -8 -12 -8 -18 -18 -15 -21 4 -3 3 -14 0 -24 -6 -15
-8 -15 -16 -3 -7 11 -10 4 -10 -24 0 -33 -2 -37 -15 -26 -14 11 -14 10 -5 -14
13 -36 13 -44 -2 -23 -12 15 -13 14 -14 -14 -1 -22 2 -27 8 -17 7 9 8 8 4 -6
-4 -10 1 -29 9 -42 11 -18 14 -37 9 -72 -8 -64 -16 -69 -13 -7 3 43 1 50 -16
50 -18 0 -20 -12 -16 -90 1 -9 11 -15 26 -15 23 0 24 -3 21 -34 -4 -24 0 -36
10 -40 20 -8 18 -27 -3 -24 -10 2 -24 14 -30 28 l-13 25 7 -25 c4 -14 7 -33 7
-42 0 -20 5 -22 26 -9 8 6 19 7 24 3 6 -3 0 -9 -13 -12 -14 -3 -27 -12 -29
-20 -5 -13 -3 -13 11 -2 9 8 22 12 29 9 9 -4 7 -6 -3 -6 -26 -1 -31 -29 -10
-50 11 -11 16 -23 13 -27 -4 -4 -1 -4 5 0 27 15 56 15 72 -1 15 -16 15 -16 -2
-10 -13 5 -17 3 -14 -5 2 -7 19 -13 38 -12 27 0 35 -4 36 -18 1 -10 -3 -21 -9
-24 -7 -5 -8 -2 -4 7 4 8 1 6 -7 -4 -15 -18 -15 -18 -20 0 -3 12 -5 13 -6 3 0
-8 8 -26 18 -39 14 -18 20 -21 26 -11 5 8 4 11 -2 7 -6 -4 -13 0 -16 8 -10 26
23 4 38 -25 11 -22 20 -27 36 -23 15 4 20 3 15 -5 -4 -7 -1 -12 9 -12 9 0 13
-5 9 -11 -5 -8 -1 -8 14 0 15 8 23 8 28 -1 4 -7 3 -8 -4 -4 -7 4 -12 2 -12 -4
0 -8 7 -9 18 -5 9 4 33 9 52 11 l35 4 -35 -14 -35 -15 45 5 c33 4 41 3 30 -5
-10 -7 2 -8 43 -4 32 3 57 2 57 -3 0 -5 18 -8 40 -6 22 2 40 8 40 14 0 5 9 7
19 3 11 -3 22 -1 26 5 4 6 -15 11 -52 11 l-58 2 60 8 c33 5 75 11 92 12 18 2
36 7 40 10 3 4 13 1 21 -6 10 -8 13 -8 9 -1 -8 13 19 27 34 19 5 -4 6 1 3 9
-3 9 -10 14 -14 11 -5 -3 -7 3 -5 12 1 10 -4 26 -12 35 -14 16 -14 17 5 13 11
-2 23 3 26 11 3 8 11 14 17 14 7 0 9 -3 6 -7 -4 -3 0 -15 10 -25 9 -10 11 -18
5 -18 -6 0 -12 3 -15 8 -2 4 -2 0 0 -8 2 -11 -1 -10 -11 3 -9 12 -16 14 -21 8
-3 -6 -1 -11 5 -11 6 0 9 -4 6 -9 -3 -4 4 -8 15 -7 30 2 111 97 97 114 -6 7
-17 11 -25 8 -8 -3 -12 -2 -10 2 3 4 10 26 16 50 7 23 16 42 21 42 9 0 25 -39
22 -53 -1 -5 2 -6 8 -2 5 3 10 16 10 28 0 18 2 19 10 7 5 -8 10 -10 11 -5 0 6
3 22 5 37 2 14 0 29 -6 33 -5 3 -10 11 -10 16 0 6 4 8 8 5 5 -3 7 9 5 27 -3
26 -1 28 6 12 9 -18 10 -17 11 10 1 26 3 27 10 10 7 -16 9 -13 7 15 0 19 -4
37 -8 40 -4 3 -10 36 -13 74 -3 45 -10 72 -20 79 -9 7 -17 28 -18 49 -2 28 -6
34 -16 26 -9 -8 -11 -7 -6 6 5 12 2 15 -10 10 -9 -3 -16 -1 -16 5 0 6 5 11 11
11 5 0 7 5 4 10 -4 6 -16 10 -28 8 -12 -2 -22 2 -22 9 0 6 -4 15 -9 20 -5 5
-6 3 -2 -4 4 -7 3 -13 -2 -13 -6 0 -12 6 -15 14 -9 23 26 24 46 1 18 -20 18
-19 3 6 -9 14 -13 29 -9 34 5 4 -2 2 -15 -4 -22 -12 -23 -11 -12 9 7 13 8 20
2 16 -6 -3 -17 -1 -24 6 -35 33 -61 52 -54 41 4 -7 2 -13 -4 -13 -6 0 -8 -4
-5 -10 3 -6 -1 -7 -10 -3 -9 3 -13 9 -8 12 4 3 9 14 9 24 2 17 0 17 -23 2 -17
-12 -28 -13 -37 -6 -7 6 -16 8 -19 4 -4 -3 -7 -1 -7 6 0 7 10 9 28 6 l27 -6
-24 14 c-18 11 -20 16 -10 20 8 3 9 6 2 6 -6 1 -14 -3 -17 -8 -3 -5 -15 -7
-26 -4 -11 3 -17 9 -14 14 3 6 -12 7 -35 3 -26 -4 -41 -3 -41 4 0 6 -24 10
-60 9 -33 -1 -60 -5 -60 -9z m-32 -25 c-14 -2 -32 -11 -38 -19 -7 -8 -20 -14
-29 -14 -10 0 -5 7 14 20 17 11 41 19 55 18 25 -1 25 -1 -2 -5z m200 0 c-10
-2 -26 -2 -35 0 -10 3 -2 5 17 5 19 0 27 -2 18 -5z m42 -13 c0 -5 -4 -10 -10
-10 -5 0 -10 5 -10 10 0 6 5 10 10 10 6 0 10 -4 10 -10z m-36 -9 c3 -5 -14
-11 -39 -13 -24 -3 -51 -13 -60 -22 -9 -9 -20 -16 -25 -16 -5 0 -16 -3 -26 -7
-12 -4 -15 -3 -10 5 4 7 2 12 -3 12 -6 0 -11 7 -11 16 0 13 7 15 38 9 26 -4
43 -1 57 9 22 17 71 21 79 7z m-189 -31 c-3 -5 -12 -10 -18 -10 -7 0 -6 4 3
10 19 12 23 12 15 0z m405 -51 c0 -4 -9 -7 -20 -6 -11 1 -19 6 -16 12 2 5 -1
19 -7 30 -8 17 -6 16 17 -4 14 -14 26 -28 26 -32z m-455 11 c8 -13 -5 -13 -25
0 -13 8 -13 10 2 10 9 0 20 -4 23 -10z m211 -11 c-33 -10 -61 -17 -64 -15 -2
3 7 8 22 12 14 3 23 10 20 15 -3 5 14 9 38 8 l43 0 -59 -20z m-116 1 c0 -5 -8
-10 -17 -10 -15 0 -16 2 -3 10 19 12 20 12 20 0z m-270 -19 c0 -3 -11 -7 -25
-7 -20 -2 -23 1 -15 11 11 13 40 10 40 -4z m60 -26 c0 -31 -14 -39 -31 -19
-11 14 -11 18 4 29 9 6 13 16 9 20 -4 5 -1 5 6 1 6 -4 12 -18 12 -31z m377 11
c-6 -19 -34 -18 -39 2 -4 15 -1 18 19 14 13 -2 22 -10 20 -16z m-124 4 c18 0
27 -5 27 -16 0 -11 6 -14 20 -9 27 9 63 -4 56 -20 -2 -7 1 -16 8 -18 10 -4 12
1 9 14 -4 13 13 1 46 -32 28 -28 48 -56 44 -62 -3 -6 -1 -7 6 -3 6 4 8 13 4
19 -4 7 4 5 17 -4 22 -15 36 -59 18 -59 -4 0 -8 5 -8 11 0 5 -4 8 -10 4 -11
-7 21 -44 33 -38 4 2 7 -8 7 -24 0 -18 3 -24 9 -15 6 10 10 10 21 -3 10 -13
10 -18 -2 -33 -8 -9 -15 -36 -16 -58 -1 -44 -39 -137 -52 -129 -4 2 -7 -5 -6
-16 0 -11 7 -24 15 -28 10 -7 8 -11 -10 -16 -15 -5 -25 -3 -27 5 -4 10 -6 10
-12 0 -5 -8 0 -20 13 -30 24 -20 31 -50 11 -50 -8 0 -14 -7 -14 -16 0 -8 -5
-12 -10 -9 -8 5 -7 11 1 21 6 8 10 17 7 19 -10 10 -36 -7 -41 -26 -3 -10 -12
-19 -21 -19 -11 0 -7 9 13 31 23 25 34 30 52 24 21 -7 22 -6 11 8 -14 16 -25
14 -72 -10 -14 -7 -18 -13 -10 -13 9 0 6 -6 -9 -16 -13 -9 -34 -16 -47 -16
-13 0 -24 -4 -24 -8 0 -4 -36 -8 -81 -8 -61 -1 -81 2 -86 14 -8 21 -19 17 -48
-13 -14 -15 -25 -23 -25 -16 0 6 5 13 11 15 5 2 12 15 13 30 2 17 -1 25 -9 22
-6 -3 -17 7 -25 21 -7 14 -20 25 -27 25 -7 0 -16 7 -19 15 -4 8 -14 15 -23 15
-14 0 -14 2 -1 10 8 5 12 10 8 10 -5 0 -10 -1 -11 -2 -2 -2 -11 3 -21 11 -13
11 -14 16 -4 29 8 10 8 13 2 9 -7 -4 -18 0 -25 9 -10 13 -10 17 1 24 11 7 10
11 -4 25 -19 20 -21 125 -2 122 6 -1 12 16 13 38 4 66 6 74 15 69 4 -3 8 3 8
12 0 16 1 16 15 -2 8 -10 15 -14 14 -9 -4 30 3 55 14 53 6 -2 11 3 9 10 -1 7
4 23 13 35 14 20 21 12 15 -18 -1 -5 2 -6 7 -2 4 5 8 12 9 15 0 4 4 15 9 25 6
15 10 16 16 5 8 -11 11 -11 18 1 5 8 18 12 30 8 12 -3 18 -1 15 4 -3 5 9 12
27 16 29 5 31 7 14 15 -16 7 -15 7 5 3 14 -2 37 -5 53 -5z m287 0 c0 -5 -2
-10 -4 -10 -3 0 -8 5 -11 10 -3 6 -1 10 4 10 6 0 11 -4 11 -10z m-600 -14 c0
-2 -8 -10 -17 -17 -16 -13 -17 -12 -4 4 13 16 21 21 21 13z m-23 -61 c-4 -8
-11 -15 -17 -15 -14 0 -13 27 3 33 16 6 21 1 14 -18z m513 13 c0 -4 -4 -8 -9
-8 -6 0 -12 4 -15 8 -3 5 1 9 9 9 8 0 15 -4 15 -9z m-430 -8 c0 -5 -2 -10 -4
-10 -3 0 -8 5 -11 10 -3 6 -1 10 4 10 6 0 11 -4 11 -10z m-50 -21 c0 -5 -4 -9
-10 -9 -5 0 -10 7 -10 16 0 8 5 12 10 9 6 -3 10 -10 10 -16z m547 -14 c0 -8
-4 -12 -9 -9 -5 3 -6 10 -3 15 9 13 12 11 12 -6z m150 9 c-3 -3 -12 -4 -19 -1
-8 3 -5 6 6 6 11 1 17 -2 13 -5z m-664 -18 c5 -12 -2 -14 -31 -7 -2 1 0 6 3
11 9 14 22 12 28 -4z m693 -26 c-3 -17 -2 -29 2 -27 4 3 16 -5 27 -16 l20 -20
-23 12 c-12 7 -26 10 -31 7 -4 -3 -7 11 -5 32 3 43 2 42 10 42 4 0 4 -14 0
-30z m-60 -35 c7 -27 0 -55 -13 -55 -17 0 -30 36 -22 58 11 29 27 28 35 -3z
m-811 5 c-3 -5 -10 -10 -16 -10 -5 0 -9 5 -9 10 0 6 7 10 16 10 8 0 12 -4 9
-10z m25 -30 c0 -5 -5 -10 -11 -10 -5 0 -7 5 -4 10 3 6 8 10 11 10 2 0 4 -4 4
-10z m95 -29 c10 -17 -12 -21 -25 -6 -10 12 -10 15 3 15 9 0 18 -4 22 -9z
m775 -52 c0 -10 -6 -19 -14 -19 -9 0 -12 -9 -10 -27 2 -16 1 -22 -2 -15 -3 6
-12 12 -19 12 -7 0 -16 -6 -18 -12 -3 -7 -6 -3 -6 8 -1 13 10 29 24 38 14 9
25 23 25 32 0 8 5 12 10 9 6 -3 10 -15 10 -26z m-118 -89 c-6 -41 -12 -38 -12
6 0 19 4 33 8 30 5 -3 7 -19 4 -36z m-717 -26 c0 -19 -3 -34 -7 -34 -5 0 -8
19 -8 42 0 23 3 38 7 34 4 -4 8 -23 8 -42z m692 14 c-3 -7 -5 -2 -5 12 0 14 2
19 5 13 2 -7 2 -19 0 -25z m140 -20 c-3 -7 -5 -2 -5 12 0 14 2 19 5 13 2 -7 2
-19 0 -25z m-137 -18 c0 -5 -5 -10 -11 -10 -5 0 -7 5 -4 10 3 6 8 10 11 10 2
0 4 -4 4 -10z m138 -40 c7 -11 10 -20 6 -20 -7 0 -34 27 -34 34 0 13 16 5 28
-14z m-145 -79 c-18 -21 -21 -12 -9 39 l10 45 6 -35 c4 -22 2 -40 -7 -49z m67
64 c0 -8 -4 -15 -10 -15 -5 0 -10 7 -10 15 0 8 5 15 10 15 6 0 10 -7 10 -15z
m-100 -19 c0 -11 -19 -15 -25 -6 -3 5 1 10 9 10 9 0 16 -2 16 -4z m-534 -60
c19 -19 18 -42 -3 -50 -16 -6 -33 8 -33 29 0 6 4 3 10 -5 5 -8 12 -11 17 -7 4
4 2 17 -5 27 -14 23 -7 26 14 6z m-179 -12 c-3 -3 -12 -4 -19 -1 -8 3 -5 6 6
6 11 1 17 -2 13 -5z m244 -11 c12 -14 12 -15 0 -9 -10 6 -12 4 -7 -10 4 -13
-1 -24 -17 -33 -20 -13 -21 -13 -8 2 11 14 11 20 1 32 -7 9 -10 18 -6 22 3 3
6 1 6 -6 0 -7 5 -9 10 -6 6 4 8 11 5 16 -10 15 2 10 16 -8z m457 -8 c-3 -3 -9
2 -12 12 -6 14 -5 15 5 6 7 -7 10 -15 7 -18z m85 -40 c-7 -21 -12 -19 -10 4 0
11 5 18 9 15 4 -3 5 -11 1 -19z m31 -14 c-16 -15 -30 -30 -31 -34 -3 -19 -13
-19 -13 0 0 12 8 23 20 26 14 4 18 11 14 24 -5 15 -4 15 5 3 10 -14 16 -7 12
13 -1 5 4 5 10 1 9 -5 3 -15 -17 -33z m-544 14 c0 -2 -10 -10 -22 -16 -21 -11
-22 -11 -9 4 13 16 31 23 31 12z m287 -21 c-3 -3 -12 -4 -19 -1 -8 3 -5 6 6 6
11 1 17 -2 13 -5z m-32 -14 c4 -6 -7 -10 -27 -9 -27 0 -30 2 -13 9 27 12 33
12 40 0z m-143 -9 c-16 -10 15 -21 59 -21 17 0 26 -5 26 -16 0 -13 -7 -15 -36
-9 -20 4 -45 7 -56 8 -11 0 -24 6 -28 11 -6 8 -10 7 -14 -1 -2 -7 -12 -13 -21
-12 -10 0 -12 3 -5 5 7 3 10 11 7 19 -6 14 13 22 56 24 17 0 21 -2 12 -8z
m258 -42 c0 -5 -7 -9 -15 -9 -8 0 -15 7 -15 15 0 9 6 12 15 9 8 -4 15 -10 15
-15z m-60 -10 c0 -5 -11 -15 -25 -21 -20 -9 -28 -9 -38 1 -9 9 -9 14 0 19 17
11 63 11 63 1z m-269 -38 c8 12 11 12 19 -1 5 -8 10 -10 10 -4 0 6 7 11 15 11
30 0 -8 -25 -40 -27 -44 -3 -52 -1 -35 10 13 9 13 10 0 10 -13 0 -13 1 0 10
11 7 16 5 19 -7 2 -13 5 -14 12 -2z m-61 -6 c0 -7 -30 -13 -34 -7 -3 4 4 9 15
9 10 1 19 0 19 -2z m325 -5 c-3 -5 -12 -10 -18 -10 -7 0 -6 4 3 10 19 12 23
12 15 0z m-42 -7 c-7 -2 -19 -2 -25 0 -7 3 -2 5 12 5 14 0 19 -2 13 -5z"/>
<path d="M2858 2263 c7 -3 16 -2 19 1 4 3 -2 6 -13 5 -11 0 -14 -3 -6 -6z"/>
<path d="M3105 2130 c-3 -5 -1 -10 4 -10 6 0 11 5 11 10 0 6 -2 10 -4 10 -3 0
-8 -4 -11 -10z"/>
<path d="M2587 2104 c-3 -3 -3 -13 0 -22 5 -11 3 -13 -7 -7 -9 5 -11 4 -6 -3
10 -16 14 -15 26 7 9 19 0 37 -13 25z"/>
<path d="M2770 1656 c0 -2 7 -7 16 -10 8 -3 12 -2 9 4 -6 10 -25 14 -25 6z"/>
<path d="M6225 2438 c-3 -7 -4 -231 -3 -498 l3 -485 123 -3 122 -3 0 501 0
500 -120 0 c-87 0 -122 -3 -125 -12z"/>
<path d="M7487 2443 c-4 -3 -7 -227 -7 -497 l0 -491 -30 -53 c-36 -62 -94
-107 -167 -128 l-53 -15 0 -105 c0 -118 -5 -113 92 -93 182 37 349 193 387
360 6 26 11 241 11 537 l0 492 -113 0 c-63 0 -117 -3 -120 -7z"/>
<path d="M3479 2419 c33 -20 33 -50 0 -42 -18 5 -27 -15 -13 -30 3 -3 5 -77 4
-164 -2 -205 -3 -302 -2 -502 1 -145 3 -165 19 -177 17 -13 17 -13 0 -14 -10
0 -15 -4 -12 -10 4 -6 82 -9 208 -8 111 1 181 3 155 5 -27 2 -48 8 -48 13 0 5
17 7 38 4 20 -2 31 -2 25 2 -25 11 -12 21 27 20 34 -1 37 -2 19 -11 -20 -11
-16 -25 8 -25 8 0 11 5 8 10 -4 6 5 10 20 10 15 0 24 4 20 10 -9 14 8 13 23
-2 9 -9 16 -7 31 6 11 10 25 15 31 11 6 -3 9 -1 8 7 -2 7 5 12 15 12 9 -1 17
4 17 12 0 7 6 11 13 8 8 -3 13 4 14 16 1 11 -2 18 -6 15 -5 -2 -14 2 -21 10
-15 18 -36 19 -46 3 -5 -7 -2 -9 8 -6 8 4 15 1 15 -7 0 -10 -7 -11 -23 -5 -12
5 -25 6 -29 2 -3 -3 -3 1 0 10 4 9 17 19 31 22 13 4 24 10 24 14 0 5 14 7 30
4 29 -4 43 12 18 21 -7 2 -11 7 -8 10 3 3 13 -1 24 -8 17 -13 17 -15 3 -29 -9
-9 -23 -16 -33 -16 -16 0 -11 -15 4 -15 4 0 13 -4 20 -8 8 -5 11 -4 10 4 -2 6
2 13 9 16 8 3 11 -3 8 -18 -4 -21 -4 -21 16 -3 15 13 16 19 7 26 -13 8 -14 8
24 12 15 1 22 23 9 31 -7 4 -9 -1 -5 -12 4 -13 3 -14 -3 -5 -6 7 -14 12 -19
11 -21 -4 -26 2 -14 16 7 8 16 12 21 9 21 -12 48 -11 53 2 3 9 1 12 -4 9 -6
-4 -10 7 -10 26 0 37 -16 29 -23 -11 -4 -21 -4 -20 -6 7 0 17 3 34 9 38 5 3 7
12 3 20 -3 8 0 15 6 15 5 0 16 -18 22 -40 12 -38 36 -47 26 -9 -3 10 0 22 5
26 7 4 8 1 3 -7 -5 -8 -4 -11 3 -6 10 6 7 49 -4 67 -2 4 1 20 8 36 6 15 10 35
9 43 -1 12 0 12 7 1 13 -19 19 -4 21 58 1 29 4 58 8 64 3 6 1 7 -5 3 -7 -4
-12 -2 -12 3 0 25 -21 9 -27 -20 -8 -41 -24 -16 -18 29 2 18 1 30 -4 28 -4 -3
-8 1 -8 8 0 7 6 13 14 13 7 0 13 -6 13 -13 0 -7 4 -15 9 -18 8 -5 7 33 -2 88
-5 28 -27 32 -27 6 0 -13 4 -19 11 -14 8 4 8 0 0 -15 -15 -27 -31 -27 -31 -1
0 11 -3 20 -8 20 -4 0 -13 14 -21 31 -10 23 -11 36 -2 52 10 20 10 20 5 -5 -4
-19 0 -32 15 -47 15 -15 21 -17 21 -7 0 8 -5 18 -10 21 -6 4 -8 15 -5 24 3 10
-1 24 -10 31 -8 7 -15 9 -15 4 -1 -5 -10 8 -21 29 -18 33 -22 37 -36 25 -15
-11 -16 -10 -10 10 4 18 2 22 -10 18 -8 -3 -16 -6 -19 -6 -2 0 -1 -8 2 -17 5
-17 5 -17 -9 0 -16 20 -31 23 -24 5 3 -9 -11 -14 -50 -15 l-55 -2 24 23 c12
12 27 20 32 18 5 -3 6 0 2 6 -5 9 -12 8 -26 -1 -16 -9 -23 -9 -36 4 -15 15
-13 17 19 21 38 4 73 -14 62 -31 -3 -6 -13 -11 -21 -11 -8 0 -14 -4 -14 -10 0
-5 7 -10 15 -10 8 0 15 5 15 10 0 6 7 10 16 10 8 0 12 5 8 11 -5 8 -1 8 14 0
15 -8 21 -7 25 4 4 9 1 12 -9 8 -8 -3 -14 -2 -13 3 4 21 -2 26 -16 14 -10 -9
-15 -9 -15 -1 0 6 -7 11 -16 11 -10 0 -14 6 -11 14 4 10 -4 12 -39 8 -33 -3
-48 -1 -57 10 -18 23 -68 29 -91 12 -11 -8 -29 -14 -40 -13 -18 1 -17 2 4 8
14 4 -35 5 -109 3 -94 -3 -135 -1 -140 7 -4 6 -29 13 -55 15 l-47 3 30 -18z
m48 -31 c-3 -8 -6 -5 -6 6 -1 11 2 17 5 13 3 -3 4 -12 1 -19z m393 12 c0 -5
-7 -10 -16 -10 -8 0 -12 5 -9 10 3 6 10 10 16 10 5 0 9 -4 9 -10z m-54 -36
c-24 -17 -316 -21 -316 -4 0 6 58 9 151 9 98 -1 154 2 162 10 6 6 13 8 16 5 3
-3 -3 -12 -13 -20z m-326 -44 c0 -5 -4 -10 -10 -10 -5 0 -10 5 -10 10 0 6 5
10 10 10 6 0 10 -4 10 -10z m227 4 c-3 -3 -12 -4 -19 -1 -8 3 -5 6 6 6 11 1
17 -2 13 -5z m140 -20 c-7 -7 -37 7 -37 17 0 6 9 5 21 -1 11 -7 19 -14 16 -16z
m-100 10 c-3 -3 -12 -4 -19 -1 -8 3 -5 6 6 6 11 1 17 -2 13 -5z m-237 -44 c0
-11 -7 -20 -15 -20 -18 0 -19 12 -3 28 16 16 18 15 18 -8z m245 -4 c13 -12 13
-16 3 -17 -7 -1 -2 -4 12 -8 14 -4 31 -3 38 2 8 6 12 6 12 -1 0 -12 56 -33 65
-24 4 4 5 1 3 -7 -1 -7 2 -15 9 -18 8 -3 11 3 8 17 -3 15 3 23 21 30 36 14 43
12 37 -9 -5 -20 -35 -39 -30 -19 1 6 -3 12 -10 15 -10 3 -11 -15 -3 -37 1 -3
3 -11 4 -19 0 -8 8 -16 16 -18 13 -4 13 -3 0 7 -13 10 -13 11 0 7 8 -2 15 -10
15 -18 1 -40 40 -51 40 -11 0 12 5 21 10 21 6 0 9 -9 8 -19 -2 -11 3 -18 10
-16 6 1 9 1 5 -1 -12 -7 -9 -31 5 -36 8 -4 7 -6 -3 -6 -15 -1 -23 -41 -8 -41
4 0 7 -8 7 -17 1 -27 18 -120 20 -105 0 6 6 12 12 12 8 0 10 -12 6 -35 -3 -19
-1 -47 6 -64 8 -22 8 -35 -1 -53 -12 -23 -12 -22 -11 7 2 48 0 57 -11 50 -5
-3 -11 -1 -11 4 -1 6 -2 16 -3 23 -2 18 -23 20 -30 3 -3 -9 -2 -13 4 -10 16
10 12 -17 -6 -36 -10 -11 -12 -19 -5 -24 6 -3 11 -1 11 6 0 7 2 10 5 7 3 -3 1
-18 -5 -33 -7 -17 -15 -25 -25 -21 -8 3 -17 1 -20 -4 -3 -5 -13 -6 -23 -3 -13
4 -13 2 3 -10 20 -16 16 -29 -10 -33 -8 -1 -15 5 -15 14 0 12 -3 13 -11 5 -6
-6 -8 -17 -3 -24 16 -27 11 -44 -14 -46 -18 -1 -21 1 -11 8 12 8 12 10 -1 19
-21 14 -30 12 -30 -4 0 -17 -24 -28 -45 -20 -27 11 -16 -5 16 -21 17 -9 29
-19 26 -22 -3 -2 -16 3 -30 11 -22 15 -31 15 -86 2 -33 -8 -61 -11 -61 -6 0 4
-8 6 -19 3 -11 -3 -21 2 -24 11 -4 9 -2 16 2 16 5 0 12 -6 14 -12 4 -10 6 -10
6 0 1 7 -6 15 -14 18 -8 4 -12 10 -9 15 3 5 0 8 -8 7 -16 -4 -18 30 -23 304
-2 153 0 201 11 220 8 12 17 31 20 41 6 16 16 18 60 15 30 -1 54 0 54 5 0 8
-16 10 -77 7 -24 -1 -43 2 -43 7 0 16 118 6 135 -11z m79 15 c4 -5 -1 -8 -9
-7 -21 3 -31 16 -12 16 9 0 18 -4 21 -9z m46 -1 c0 -5 -4 -10 -10 -10 -5 0
-10 5 -10 10 0 6 5 10 10 10 6 0 10 -4 10 -10z m238 -25 c10 -21 9 -25 -4 -25
-8 0 -13 4 -9 9 3 5 -2 17 -11 25 -12 13 -13 16 -1 16 7 0 19 -11 25 -25z
m-84 6 c4 -5 -3 -7 -14 -4 -23 6 -26 13 -6 13 8 0 17 -4 20 -9z m-234 -11 c0
-5 -2 -10 -4 -10 -3 0 -8 5 -11 10 -3 6 -1 10 4 10 6 0 11 -4 11 -10z m75 -10
c-3 -5 -12 -10 -18 -10 -7 0 -6 4 3 10 19 12 23 12 15 0z m-438 -62 c-3 -8 -6
-5 -6 6 -1 11 2 17 5 13 3 -3 4 -12 1 -19z m583 18 c0 -3 -4 -8 -10 -11 -5 -3
-10 -1 -10 4 0 6 5 11 10 11 6 0 10 -2 10 -4z m92 -13 c-6 -2 -9 -10 -6 -15 4
-7 2 -8 -5 -4 -13 9 -5 26 12 25 9 0 8 -2 -1 -6z m-12 -42 c0 -5 -9 -11 -20
-14 -17 -4 -18 -2 -9 14 9 18 29 18 29 0z m37 -71 c2 -34 -11 -39 -27 -11 -15
28 -12 41 8 41 12 0 18 -9 19 -30z m-53 -46 c22 -8 20 -34 -2 -34 -24 0 -32 8
-25 26 6 16 6 16 27 8z m141 -61 c-9 -15 -13 -19 -10 -8 4 11 10 29 13 40 3
11 7 14 9 8 3 -7 -3 -24 -12 -40z m-45 -40 c0 -5 -7 -17 -15 -27 -14 -19 -15
-19 -15 7 0 17 5 27 15 27 8 0 15 -3 15 -7z m-53 -80 c0 -21 -2 -30 -4 -20 -3
9 -9 15 -14 12 -5 -4 -9 5 -9 19 0 16 6 26 14 26 10 0 14 -12 13 -37z m-666 4
c-10 -9 -11 -8 -5 6 3 10 9 15 12 12 3 -3 0 -11 -7 -18z m726 -39 c-3 -8 -6
-5 -6 6 -1 11 2 17 5 13 3 -3 4 -12 1 -19z m-750 -140 c-2 -29 -3 -6 -3 52 0
58 1 81 3 53 2 -29 2 -77 0 -105z m93 62 c0 -22 -4 -40 -10 -40 -5 0 -10 18
-10 40 0 22 5 40 10 40 6 0 10 -18 10 -40z m577 -22 c-3 -7 -5 -2 -5 12 0 14
2 19 5 13 2 -7 2 -19 0 -25z m-87 -17 c0 -14 -6 -17 -25 -13 -14 2 -22 9 -19
14 3 5 12 7 20 4 8 -3 14 -1 14 4 0 6 2 10 5 10 3 0 5 -8 5 -19z m-60 -34 c0
-2 -10 -12 -21 -23 -22 -19 -22 -19 -8 4 12 19 29 30 29 19z m-95 -17 c4 -6
16 -8 28 -5 18 5 19 4 6 -4 -12 -8 -25 -7 -45 4 -19 9 -23 15 -12 15 9 0 20
-5 23 -10z m-71 -18 c2 -4 -5 -9 -17 -9 -17 -2 -19 0 -7 7 18 12 18 12 24 2z
m-357 -54 c-3 -7 -5 -2 -5 12 0 14 2 19 5 13 2 -7 2 -19 0 -25z m357 24 c3 -5
-1 -9 -9 -9 -8 0 -12 4 -9 9 3 4 7 8 9 8 2 0 6 -4 9 -8z m-34 -22 c0 -5 -8
-10 -17 -10 -15 0 -16 2 -3 10 19 12 20 12 20 0z m225 4 c13 -5 14 -8 3 -15
-7 -5 -17 -9 -23 -9 -5 0 -3 5 5 10 13 8 12 10 -2 10 -10 0 -18 -5 -18 -12 0
-6 -3 -9 -6 -5 -7 7 4 27 16 27 4 0 16 -3 25 -6z m-180 -14 c3 -6 -1 -13 -10
-16 -19 -8 -30 0 -20 15 8 14 22 14 30 1z m136 -43 c-10 -9 -11 -8 -5 6 3 10
9 15 12 12 3 -3 0 -11 -7 -18z m-225 -24 c-6 -7 -259 -4 -265 3 -3 3 57 4 133
3 75 0 135 -3 132 -6z"/>
<path d="M3670 2201 c0 -5 5 -13 10 -16 6 -3 10 -2 10 4 0 5 -4 13 -10 16 -5
3 -10 2 -10 -4z"/>
<path d="M4056 2093 c-6 -14 -5 -15 5 -6 7 7 10 15 7 18 -3 3 -9 -2 -12 -12z"/>
<path d="M3664 1990 c0 -58 1 -81 3 -52 2 28 2 76 0 105 -2 28 -3 5 -3 -53z"/>
<path d="M4015 1770 c-3 -5 -1 -10 4 -10 6 0 11 5 11 10 0 6 -2 10 -4 10 -3 0
-8 -4 -11 -10z"/>
<path d="M4040 1770 c0 -5 5 -10 10 -10 6 0 10 5 10 10 0 6 -4 10 -10 10 -5 0
-10 -4 -10 -10z"/>
<path d="M3995 1720 c3 -5 8 -10 11 -10 2 0 4 5 4 10 0 6 -5 10 -11 10 -5 0
-7 -4 -4 -10z"/>
<path d="M3936 1701 c-3 -5 1 -11 9 -15 8 -3 15 -1 15 4 0 13 -18 22 -24 11z"/>
<path d="M3775 1650 c3 -5 16 -10 28 -9 21 0 21 1 2 9 -28 12 -37 12 -30 0z"/>
<path d="M3778 2433 c12 -2 32 -2 45 0 12 2 2 4 -23 4 -25 0 -35 -2 -22 -4z"/>
<path d="M3603 2423 c20 -2 54 -2 75 0 20 2 3 4 -38 4 -41 0 -58 -2 -37 -4z"/>
<path d="M4405 2420 c-15 -6 -16 -9 -4 -9 12 -1 14 -9 11 -33 -4 -26 -2 -30
12 -25 10 4 16 1 16 -7 0 -8 -5 -16 -11 -18 -9 -3 -13 -118 -15 -415 -3 -443
-1 -454 49 -452 20 1 20 2 -3 8 -24 7 -24 7 9 14 18 4 145 7 281 7 279 0 261
-6 249 80 -3 25 -7 34 -8 20 l-1 -25 -153 2 c-204 2 -195 1 -177 13 8 5 81 10
163 10 90 0 148 4 149 10 0 6 1 15 2 21 1 7 -54 10 -178 9 -155 -1 -178 1
-173 14 4 9 2 18 -3 21 -6 4 -11 41 -12 83 l-2 77 -6 -75 c-6 -69 -7 -71 -9
-25 -7 101 -6 120 6 133 7 7 17 10 23 7 5 -3 10 -2 10 4 0 6 39 9 100 8 61 -1
100 2 101 8 0 5 4 1 9 -10 7 -19 8 -19 15 -1 5 11 3 21 -5 26 -9 5 -11 19 -7
39 4 18 3 30 -1 27 -4 -3 -14 -1 -22 5 -8 5 -10 9 -4 9 7 0 14 8 16 18 5 17
-3 18 -81 18 -53 -1 -88 -5 -91 -12 -3 -7 -13 -8 -25 -3 -18 7 -18 8 -2 8 22
1 19 30 -6 51 -13 11 -17 32 -18 81 -2 82 8 101 63 116 l43 12 -50 -4 c-49 -5
-50 -5 -20 9 37 17 325 23 325 6 0 -6 -48 -11 -127 -12 l-128 -2 120 -4 c156
-4 162 -2 162 45 1 21 -1 32 -4 26 -2 -7 -9 -13 -14 -13 -5 0 -8 6 -7 13 2 8
-23 14 -87 18 l-90 5 75 3 c41 1 85 4 98 5 12 2 23 -2 23 -8 1 -6 4 5 8 24 5
29 3 36 -14 42 -30 9 -557 8 -580 -2z m58 -17 c-7 -2 -19 -2 -25 0 -7 3 -2 5
12 5 14 0 19 -2 13 -5z m110 0 c-18 -2 -48 -2 -65 0 -18 2 -4 4 32 4 36 0 50
-2 33 -4z m330 0 c-51 -2 -136 -2 -190 0 -54 1 -12 3 92 3 105 0 149 -2 98 -3z
m-363 -43 c0 -5 -6 -10 -14 -10 -8 0 -21 -3 -30 -6 -11 -4 -16 -1 -16 10 0 11
9 16 30 16 17 0 30 -4 30 -10z m42 -2 c-9 -9 -15 -9 -24 0 -9 9 -7 12 12 12
19 0 21 -3 12 -12z m63 2 c-3 -5 -10 -10 -16 -10 -5 0 -9 5 -9 10 0 6 7 10 16
10 8 0 12 -4 9 -10z m-179 -27 c-10 -10 -19 5 -10 18 6 11 8 11 12 0 2 -7 1
-15 -2 -18z m134 -31 c0 -5 -9 -19 -20 -32 -17 -20 -20 -21 -20 -5 0 10 8 24
18 31 21 16 22 16 22 6z m60 -2 c0 -5 -4 -10 -10 -10 -5 0 -10 5 -10 10 0 6 5
10 10 10 6 0 10 -4 10 -10z m-140 -30 c14 -11 19 -20 12 -20 -7 0 -10 -5 -7
-10 4 -6 1 -9 -6 -8 -11 3 -39 41 -39 54 0 9 17 2 40 -16z m67 -42 c-3 -8 -6
-5 -6 6 -1 11 2 17 5 13 3 -3 4 -12 1 -19z m-13 -67 c-4 -17 -10 -34 -14 -36
-4 -3 -4 11 0 31 5 20 6 44 3 53 -4 14 -3 14 6 -1 6 -9 8 -30 5 -47z m-137
-113 c-2 -24 -4 -5 -4 42 0 47 2 66 4 43 2 -24 2 -62 0 -85z m107 107 c-3 -8
-9 -14 -12 -13 -22 2 -42 -3 -42 -13 0 -5 6 -7 13 -3 7 5 6 0 -3 -11 -14 -18
-15 -18 -18 3 -4 27 17 51 45 52 16 0 21 -4 17 -15z m-31 -90 c17 -24 17 -25
-1 -43 -11 -11 -22 -26 -25 -33 -2 -8 -5 12 -4 44 0 31 2 57 6 57 3 0 14 -12
24 -25z m62 15 c4 -6 11 -8 16 -5 5 4 9 2 9 -3 0 -6 -7 -13 -16 -16 -8 -3 -12
-11 -8 -17 4 -8 9 -7 16 2 6 10 7 7 3 -8 -4 -15 -2 -23 6 -23 10 0 10 -3 1
-12 -20 -20 -45 11 -39 48 4 20 1 35 -6 38 -9 3 -9 5 0 5 6 1 15 -4 18 -9z
m-128 -232 c-2 -29 -3 -6 -3 52 0 58 1 81 3 53 2 -29 2 -77 0 -105z m158 85
c0 -20 -6 -29 -25 -34 -16 -4 -19 -7 -7 -8 9 -1 17 -6 17 -12 0 -7 -8 -6 -22
4 -27 17 -30 47 -8 64 26 21 46 15 45 -14z m-99 -10 c-10 -10 -19 5 -10 18 6
11 8 11 12 0 2 -7 1 -15 -2 -18z m194 11 c0 -2 -9 -4 -20 -4 -11 0 -20 4 -20
9 0 5 9 7 20 4 11 -3 20 -7 20 -9z m87 10 c-3 -3 -12 -4 -19 -1 -8 3 -5 6 6 6
11 1 17 -2 13 -5z m40 -36 c-3 -8 -6 -5 -6 6 -1 11 2 17 5 13 3 -3 4 -12 1
-19z m-20 -16 c7 -4 -18 -6 -55 -4 -96 5 -108 10 -27 11 39 0 76 -3 82 -7z
m-285 -24 c9 -23 -2 -40 -17 -28 -8 6 -11 18 -8 26 6 17 19 18 25 2z m-35
-160 c-2 -24 -4 -5 -4 42 0 47 2 66 4 43 2 -24 2 -62 0 -85z m73 71 c0 -11
-20 -22 -21 -12 0 4 -2 19 -3 32 -3 22 -2 23 11 6 7 -11 13 -22 13 -26z m-120
-91 l-5 -93 -3 79 c-3 70 1 106 10 106 2 0 1 -42 -2 -92z m107 15 c-3 -10 -5
-4 -5 12 0 17 2 24 5 18 2 -7 2 -21 0 -30z m-37 -51 c0 -4 -6 -14 -12 -20 -10
-10 -10 -15 1 -21 9 -6 10 -11 2 -15 -12 -8 -26 37 -16 53 7 13 25 15 25 3z
m100 -6 c0 -8 -4 -18 -10 -21 -5 -3 -10 3 -10 14 0 12 5 21 10 21 6 0 10 -6
10 -14z m33 -33 c-7 -2 -19 -2 -25 0 -7 3 -2 5 12 5 14 0 19 -2 13 -5z m-199
-75 c9 -42 36 -36 36 7 0 19 3 35 8 35 4 0 7 -18 7 -40 0 -34 -3 -40 -20 -40
-30 0 -45 19 -44 55 1 31 3 28 13 -17z m116 2 c0 -11 -4 -20 -9 -20 -5 0 -7 9
-4 20 3 11 7 20 9 20 2 0 4 -9 4 -20z m65 -20 c4 -6 -7 -10 -25 -10 -18 0 -29
4 -25 10 3 6 15 10 25 10 10 0 22 -4 25 -10z m321 -3 c4 -4 -61 -7 -144 -7
-84 0 -152 3 -152 8 0 10 286 9 296 -1z"/>
<path d="M1585 2330 c-3 -5 -2 -10 4 -10 5 0 13 5 16 10 3 6 2 10 -4 10 -5 0
-13 -4 -16 -10z"/>
<path d="M2485 2310 c-3 -5 -1 -10 4 -10 6 0 11 5 11 10 0 6 -2 10 -4 10 -3 0
-8 -4 -11 -10z"/>
<path d="M2200 2301 c0 -6 5 -13 10 -16 6 -3 10 1 10 9 0 9 -4 16 -10 16 -5 0
-10 -4 -10 -9z"/>
<path d="M1848 2253 c7 -3 16 -2 19 1 4 3 -2 6 -13 5 -11 0 -14 -3 -6 -6z"/>
<path d="M4230 2200 c0 -5 5 -10 11 -10 5 0 7 5 4 10 -3 6 -8 10 -11 10 -2 0
-4 -4 -4 -10z"/>
<path d="M3331 2134 c0 -11 3 -14 6 -6 3 7 2 16 -1 19 -3 4 -6 -2 -5 -13z"/>
<path d="M2354 2032 c0 -10 6 -19 13 -19 8 0 9 6 2 19 -5 10 -11 18 -12 18 -2
0 -3 -8 -3 -18z"/>
<path d="M4708 2033 c23 -2 59 -2 80 0 20 2 1 4 -43 4 -44 0 -61 -2 -37 -4z"/>
<path d="M4301 1864 c0 -11 3 -14 6 -6 3 7 2 16 -1 19 -3 4 -6 -2 -5 -13z"/>
<path d="M4276 1817 c3 -10 9 -15 12 -12 3 3 0 11 -7 18 -10 9 -11 8 -5 -6z"/>
<path d="M1686 1777 c3 -10 9 -15 12 -12 3 3 0 11 -7 18 -10 9 -11 8 -5 -6z"/>
<path d="M1480 1741 c0 -6 4 -13 10 -16 6 -3 7 1 4 9 -7 18 -14 21 -14 7z"/>
<path d="M1696 1738 c3 -5 10 -6 15 -3 13 9 11 12 -6 12 -8 0 -12 -4 -9 -9z"/>
<path d="M2466 1663 c-4 -5 -12 -8 -17 -8 -12 0 -12 -20 1 -21 6 -1 16 -2 23
-3 9 -1 9 -3 -1 -10 -11 -6 -10 -10 4 -15 25 -10 30 1 10 23 -10 11 -15 25
-11 30 7 13 2 15 -9 4z"/>
<path d="M1820 1650 c20 -13 33 -13 25 0 -3 6 -14 10 -23 10 -15 0 -15 -2 -2
-10z"/>
<path d="M1948 1643 c7 -3 16 -2 19 1 4 3 -2 6 -13 5 -11 0 -14 -3 -6 -6z"/>
<path d="M2189 1600 c-25 -20 -16 -24 30 -11 20 5 22 8 9 19 -13 10 -20 9 -39
-8z"/>
<path d="M1635 1540 c-3 -5 -1 -10 4 -10 6 0 11 5 11 10 0 6 -2 10 -4 10 -3 0
-8 -4 -11 -10z"/>
<path d="M1770 1496 c13 -18 13 -19 -1 -14 -9 3 -16 1 -16 -6 0 -6 9 -12 19
-12 23 0 23 19 1 37 -17 13 -17 13 -3 -5z"/>
<path d="M3020 1491 c0 -5 7 -12 16 -15 22 -9 24 -8 18 9 -7 16 -34 21 -34 6z"/>
<path d="M3075 1490 c-3 -6 1 -7 9 -4 18 7 21 14 7 14 -6 0 -13 -4 -16 -10z"/>
<path d="M1803 1465 c0 -8 4 -15 9 -15 4 0 8 4 8 9 0 6 -4 12 -8 15 -5 3 -9
-1 -9 -9z"/>
</g>
</svg>
