<?xml version="1.0" standalone="no"?>
<!DOCTYPE svg PUBLIC "-//W3C//DTD SVG 20010904//EN"
 "http://www.w3.org/TR/2001/REC-SVG-20010904/DTD/svg10.dtd">
<svg version="1.0" xmlns="http://www.w3.org/2000/svg"
 width="1000.000000pt" height="354.000000pt" viewBox="0 0 1000.000000 354.000000"
 preserveAspectRatio="xMidYMid meet">

<g transform="translate(0.000000,354.000000) scale(0.100000,-0.100000)"
fill="#000000" stroke="none">
<path d="M9214 3529 c-72 -12 -173 -50 -240 -90 -89 -54 -196 -173 -243 -271
-37 -77 -71 -203 -71 -263 l0 -25 203 0 204 0 17 62 c35 126 161 205 286 180
30 -7 73 -24 95 -40 49 -34 95 -107 102 -161 l6 -41 206 0 207 0 -7 69 c-11
96 -25 145 -70 232 -131 253 -416 395 -695 348z"/>
<path d="M865 2749 c-294 -40 -527 -171 -681 -384 -56 -77 -131 -241 -154
-335 -54 -225 -27 -513 65 -709 88 -185 224 -319 417 -411 140 -67 305 -97
467 -87 124 9 208 30 311 80 69 33 101 57 173 129 l87 88 0 -118 c0 -204 -39
-324 -135 -417 -70 -69 -176 -121 -298 -146 -78 -16 -106 -17 -187 -9 -162 16
-265 57 -352 138 -27 25 -61 65 -74 88 l-25 42 -164 -96 c-91 -54 -165 -102
-165 -108 0 -20 103 -157 165 -219 130 -131 278 -207 480 -250 108 -23 330
-23 449 -1 424 81 691 372 736 805 6 52 11 315 11 585 1 542 -3 593 -61 744
-138 359 -467 585 -870 597 -69 2 -156 0 -195 -6z m339 -442 c219 -81 346
-274 346 -527 0 -268 -145 -463 -391 -526 -90 -23 -271 -15 -359 15 -156 54
-266 164 -321 321 -19 55 -23 85 -23 190 1 107 4 135 26 195 58 165 176 284
331 334 88 28 100 30 217 26 82 -2 120 -8 174 -28z"/>
<path d="M5133 2745 c-338 -61 -554 -241 -660 -550 -50 -146 -53 -196 -53
-792 l0 -553 223 2 222 3 3 545 c2 428 6 558 17 608 49 214 219 335 470 334
141 0 254 -47 333 -137 40 -44 63 -90 93 -180 23 -69 23 -75 27 -622 l3 -553
225 0 226 0 -5 568 c-5 603 -7 636 -58 789 -96 293 -315 474 -652 538 -97 18
-313 18 -414 0z"/>
<path d="M8830 2743 c-58 -9 -91 -26 -128 -67 -100 -108 -70 -281 61 -348 59
-30 168 -23 224 14 87 58 117 185 68 285 -41 82 -135 130 -225 116z"/>
<path d="M9721 2739 c-149 -29 -218 -233 -120 -353 45 -53 96 -76 172 -76 122
0 207 74 215 189 12 163 -109 271 -267 240z"/>
<path d="M2267 2598 c-11 -189 -8 -830 4 -961 32 -374 178 -608 464 -742 111
-53 186 -72 338 -87 257 -25 490 26 674 148 168 112 277 272 328 484 21 88 34
416 35 893 l0 387 -224 0 -225 0 -4 -562 c-3 -391 -8 -576 -16 -607 -60 -222
-286 -368 -514 -331 -229 36 -362 152 -396 345 -12 70 -21 421 -21 853 l0 302
-218 0 -219 0 -6 -122z"/>
<path d="M6640 1785 l0 -935 220 0 220 0 2 383 3 384 345 -383 345 -383 288 0
c158 -1 287 2 287 7 0 4 -144 158 -321 342 -176 184 -377 395 -446 467 l-125
133 63 67 c35 38 214 228 399 423 185 195 351 372 369 393 l33 37 -283 -1
-284 0 -335 -374 -335 -374 -3 375 -2 374 -220 0 -220 0 0 -935z"/>
<path d="M8650 1520 l0 -670 220 0 220 0 0 670 0 670 -220 0 -220 0 0 -670z"/>
<path d="M9560 1520 l0 -670 220 0 220 0 0 670 0 670 -220 0 -220 0 0 -670z"/>
</g>
</svg>
