<?xml version="1.0" standalone="no"?>
<!DOCTYPE svg PUBLIC "-//W3C//DTD SVG 20010904//EN"
 "http://www.w3.org/TR/2001/REC-SVG-20010904/DTD/svg10.dtd">
<svg version="1.0" xmlns="http://www.w3.org/2000/svg"
 width="199.000000pt" height="107.000000pt" viewBox="0 0 199.000000 107.000000"
 preserveAspectRatio="xMidYMid meet">

<g transform="translate(0.000000,107.000000) scale(0.100000,-0.100000)"
fill="#000000" stroke="none">
<path d="M336 774 c-22 -8 -47 -21 -56 -29 -9 -8 -19 -13 -22 -9 -8 7 -76 -64
-93 -96 -26 -51 -22 -142 8 -171 12 -12 15 -18 7 -14 -10 6 -8 1 4 -13 10 -12
23 -19 27 -16 5 3 9 -1 9 -9 0 -17 68 -47 105 -47 14 0 25 5 25 11 0 5 4 8 9
5 11 -7 36 22 27 31 -4 4 -12 1 -17 -7 -9 -13 -10 -12 -6 2 3 9 0 21 -6 25
-17 13 -74 15 -95 4 -21 -11 -35 -4 -51 27 -7 12 -16 20 -21 17 -5 -3 -12 0
-16 6 -4 8 -3 9 4 5 14 -8 15 5 3 56 -5 22 -5 36 0 32 5 -3 9 3 9 13 0 38 28
62 69 60 22 0 37 -5 35 -9 -7 -10 64 -9 91 1 11 5 20 14 20 22 0 8 8 13 18 11
18 -3 24 23 7 33 -5 3 -10 1 -10 -6 0 -7 -3 -9 -7 -6 -3 4 -17 0 -31 -9 -27
-18 -100 -25 -105 -10 -2 5 -12 4 -24 -2 -17 -9 -22 -9 -26 3 -4 9 -1 12 8 9
8 -3 27 3 42 13 61 42 153 60 153 31 0 -9 4 -8 11 2 8 12 9 10 4 -7 -3 -13 -2
-23 3 -23 12 0 37 58 29 67 -13 13 -104 11 -141 -3z m4 -18 c0 -2 -7 -7 -16
-10 -8 -3 -12 -2 -9 4 6 10 25 14 25 6z m-40 -21 c0 -2 -13 -11 -30 -20 -26
-13 -29 -13 -24 0 3 8 9 13 13 11 4 -3 13 -1 21 5 17 10 20 11 20 4z m-85 -64
c3 -5 2 -12 -3 -15 -5 -3 -9 1 -9 9 0 17 3 19 12 6z m155 -11 c0 -5 -5 -10
-11 -10 -5 0 -7 5 -4 10 3 6 8 10 11 10 2 0 4 -4 4 -10z m-189 -23 c-10 -9
-11 -8 -5 6 3 10 9 15 12 12 3 -3 0 -11 -7 -18z m166 -219 c2 -17 0 -19 -7 -8
-5 8 -6 18 -4 22 8 12 10 10 11 -14z m-32 0 c3 -3 1 -9 -6 -14 -7 -4 -10 -3
-6 3 4 5 -7 10 -24 10 -31 0 -31 0 -7 -13 14 -8 17 -13 8 -13 -23 0 -54 26
-38 32 18 6 65 3 73 -5z"/>
<path d="M1056 694 c-4 -10 -2 -22 3 -27 15 -15 46 -3 46 18 0 26 -40 33 -49
9z"/>
<path d="M1650 535 l0 -165 25 0 c24 0 25 2 25 73 0 92 6 112 37 126 19 9 31
8 51 -1 26 -13 27 -17 30 -106 l3 -92 31 0 31 0 -6 93 c-2 50 -8 100 -12 109
-18 43 -105 65 -154 38 -20 -10 -21 -8 -21 40 0 43 -3 50 -20 50 -19 0 -20 -7
-20 -165z"/>
<path d="M540 655 c0 -31 -3 -35 -25 -35 -18 0 -25 -5 -25 -20 0 -15 7 -20 25
-20 24 0 25 -2 25 -72 0 -82 14 -117 51 -135 35 -17 101 -6 97 16 -2 11 -16
17 -41 19 -48 4 -59 25 -55 105 l3 62 38 3 c29 3 37 7 37 23 0 16 -7 19 -40
19 -39 0 -40 1 -40 35 0 31 -3 35 -25 35 -22 0 -25 -4 -25 -35z"/>
<path d="M1897 673 c-2 -5 -1 -19 3 -33 6 -24 7 -24 11 8 5 29 -4 44 -14 25z"/>
<path d="M1940 645 c1 -26 2 -28 11 -12 8 14 8 22 0 30 -8 8 -11 3 -11 -18z"/>
<path d="M1970 651 c-13 -26 -13 -28 5 -28 9 0 15 10 15 24 0 28 -6 29 -20 4z"/>
<path d="M1203 619 c-87 -25 -109 -162 -37 -230 26 -25 90 -32 127 -15 25 12
23 -35 -3 -59 -19 -17 -41 -17 -95 -1 -11 4 -27 2 -35 -4 -13 -9 -12 -13 9
-30 48 -41 126 -37 167 7 23 25 24 31 24 179 0 147 -1 154 -20 154 -11 0 -20
-5 -20 -10 0 -7 -6 -7 -17 -2 -32 16 -67 20 -100 11z m88 -58 c31 -25 34 -98
5 -130 -46 -51 -116 -12 -116 64 0 75 58 110 111 66z"/>
<path d="M1461 617 c-51 -18 -76 -58 -76 -122 0 -66 25 -104 82 -124 106 -38
195 73 149 184 -24 57 -92 85 -155 62z m89 -57 c31 -31 30 -105 -2 -132 -25
-22 -57 -23 -86 -2 -18 12 -22 25 -22 65 0 56 24 89 65 89 14 0 34 -9 45 -20z"/>
<path d="M695 578 c68 -215 65 -208 91 -208 21 0 26 9 45 75 12 41 25 75 28
75 4 0 15 -33 26 -72 18 -66 23 -73 47 -76 26 -3 28 1 62 111 20 63 36 120 36
126 0 6 -10 11 -23 11 -20 0 -26 -11 -48 -82 l-26 -83 -25 80 c-22 71 -27 80
-48 80 -22 0 -27 -9 -49 -80 l-24 -80 -26 82 c-24 77 -28 83 -53 83 l-27 0 14
-42z"/>
<path d="M1050 495 l0 -125 30 0 30 0 0 125 0 125 -30 0 -30 0 0 -125z"/>
</g>
</svg>
