<?xml version="1.0" standalone="no"?>
<!DOCTYPE svg PUBLIC "-//W3C//DTD SVG 20010904//EN"
 "http://www.w3.org/TR/2001/REC-SVG-20010904/DTD/svg10.dtd">
<svg version="1.0" xmlns="http://www.w3.org/2000/svg"
 width="1564.000000pt" height="1042.000000pt" viewBox="0 0 1564.000000 1042.000000"
 preserveAspectRatio="xMidYMid meet">

<g transform="translate(0.000000,1042.000000) scale(0.100000,-0.100000)"
fill="#000000" stroke="none">
<path d="M8372 9419 c-158 -26 -274 -108 -552 -389 -197 -199 -589 -578 -1157
-1117 -185 -176 -261 -267 -323 -387 -57 -110 -56 -162 6 -311 99 -236 376
-937 372 -941 -4 -3 -1601 -476 -2128 -630 -500 -146 -484 -141 -539 -190
-141 -127 -156 -358 -55 -859 18 -93 79 -489 134 -880 166 -1172 169 -1195
196 -1275 47 -139 82 -185 254 -330 63 -54 356 -317 650 -585 344 -314 551
-495 580 -509 36 -16 63 -21 130 -20 77 1 125 12 530 127 377 106 1167 329
2145 603 127 36 248 72 270 80 111 43 134 121 101 337 -8 50 -17 119 -21 152
-6 59 -25 225 -65 563 -11 92 -31 268 -45 392 -14 124 -28 243 -30 265 -99
840 -137 1176 -133 1180 2 2 176 6 388 9 446 7 532 12 598 31 63 19 150 76
248 162 44 38 230 195 414 349 184 154 452 378 595 498 143 120 366 306 496
414 129 109 244 208 254 222 24 31 32 124 16 187 -7 26 -43 115 -81 197 -89
196 -738 1818 -802 2006 -62 183 -107 268 -170 324 -80 73 -121 82 -528 126
-58 6 -436 56 -840 111 -404 54 -762 98 -795 98 -33 -1 -84 -5 -113 -10z m53
-63 c47 -20 85 -78 136 -203 246 -618 857 -2129 876 -2168 69 -136 111 -158
343 -179 54 -5 559 -51 785 -71 33 -3 80 -8 105 -10 25 -2 72 -7 105 -10 33
-3 157 -14 275 -25 118 -10 262 -22 320 -25 126 -8 182 -19 232 -47 89 -51 91
-197 3 -234 -40 -16 -140 -18 -216 -4 -30 6 -376 44 -769 85 -393 42 -771 84
-840 95 -213 34 -322 22 -405 -43 -63 -49 -755 -685 -900 -827 -236 -229 -299
-261 -371 -184 -61 64 -43 129 63 220 32 27 260 252 506 500 495 499 470 467
447 580 -12 59 -789 2191 -850 2334 -36 83 -42 138 -20 165 16 19 106 65 128
65 7 0 28 -6 47 -14z m1670 -1075 c211 -98 327 -377 220 -531 -63 -92 -191
-113 -318 -53 -132 63 -234 197 -258 340 -10 58 -10 77 5 126 19 66 72 126
126 145 58 19 151 8 225 -27z m-2757 -687 c196 -97 232 -464 63 -633 -178
-178 -423 -6 -423 296 0 149 68 283 171 336 70 35 121 35 189 1z m1058 -247
c47 -24 110 -102 136 -166 19 -47 22 -75 22 -171 0 -98 -3 -124 -23 -174 -25
-62 -95 -147 -141 -171 -86 -44 -170 -26 -251 54 -82 82 -103 143 -103 291 0
136 19 199 85 274 80 91 179 113 275 63z m-1192 -1116 c54 -24 48 -19 602
-510 524 -464 604 -542 684 -658 74 -107 97 -174 115 -349 25 -242 122 -1040
165 -1359 22 -165 42 -320 46 -345 3 -25 7 -58 9 -75 8 -55 36 -269 40 -307 3
-21 7 -55 10 -75 55 -452 60 -543 32 -586 -28 -43 -74 -60 -382 -142 -297 -79
-395 -107 -1695 -481 -415 -119 -784 -225 -820 -235 -81 -24 -113 -18 -193 33
-92 60 -145 106 -332 288 -93 91 -369 347 -611 568 -291 265 -448 414 -459
438 -9 19 -25 101 -36 182 -71 516 -336 2350 -348 2403 -41 189 -11 322 87
376 20 12 75 31 122 43 47 12 434 129 860 260 810 249 906 278 1291 384 248
69 617 163 659 168 48 6 114 -3 154 -21z m3419 -62 c50 -13 103 -61 118 -106
48 -148 -128 -351 -343 -394 -156 -31 -278 41 -278 165 0 199 292 394 503 335z
m-858 -318 c225 -102 51 -435 -257 -492 -114 -21 -214 16 -254 93 -53 102 31
266 182 354 110 65 246 83 329 45z m-887 -346 c99 -42 148 -152 106 -241 -65
-136 -336 -234 -465 -168 -38 19 -77 69 -85 108 -13 70 53 173 155 240 107 71
211 93 289 61z"/>
<path d="M6685 5780 c-164 -26 -301 -95 -318 -159 -11 -43 45 -98 122 -122 20
-6 83 -13 141 -16 383 -19 650 193 355 282 -62 19 -222 27 -300 15z"/>
<path d="M5330 5399 c-97 -12 -223 -55 -272 -92 -211 -161 213 -280 550 -155
63 23 142 93 142 125 0 26 -34 70 -68 87 -71 35 -227 51 -352 35z"/>
<path d="M6208 5365 c-222 -42 -340 -151 -248 -229 143 -120 644 -58 705 87
36 87 -67 145 -270 153 -71 2 -138 -2 -187 -11z"/>
<path d="M7206 5359 c-250 -26 -410 -142 -320 -233 108 -107 533 -84 671 37
47 42 57 70 37 108 -34 67 -209 107 -388 88z"/>
<path d="M5750 4955 c-172 -36 -270 -97 -270 -167 0 -119 321 -165 569 -82
116 39 187 102 174 154 -8 30 -55 67 -108 86 -67 23 -275 29 -365 9z"/>
<path d="M4497 4272 c-10 -10 -22 -45 -28 -77 -38 -204 115 -605 231 -605 71
0 98 123 65 297 -52 271 -191 470 -268 385z"/>
<path d="M7853 3934 c-61 -22 -137 -95 -170 -162 -23 -48 -28 -70 -28 -137 0
-71 4 -88 33 -147 150 -305 585 -172 560 171 -9 116 -79 220 -176 263 -61 27
-163 33 -219 12z"/>
<path d="M7160 3741 c-87 -27 -165 -96 -203 -180 -32 -71 -30 -188 4 -261 57
-122 145 -182 268 -181 93 0 157 28 216 93 83 92 107 218 64 335 -30 80 -116
165 -190 187 -56 17 -117 19 -159 7z"/>
<path d="M4798 3560 c-35 -21 -51 -93 -45 -198 12 -198 107 -433 197 -485 74
-44 110 7 110 153 0 208 -94 460 -193 520 -36 22 -45 24 -69 10z"/>
<path d="M6408 3557 c-270 -76 -298 -482 -40 -600 67 -31 170 -30 237 3 280
136 211 575 -95 605 -32 3 -75 -1 -102 -8z"/>
<path d="M8055 2930 c-97 -16 -174 -74 -220 -167 -25 -50 -29 -70 -29 -143 -1
-110 25 -170 101 -240 150 -137 372 -89 462 100 35 74 37 201 5 271 -59 127
-189 200 -319 179z"/>
<path d="M5096 2765 c-87 -87 -1 -505 134 -646 32 -34 44 -40 72 -37 52 5 73
57 71 178 -5 280 -181 601 -277 505z"/>
<path d="M7263 2732 c-131 -47 -207 -160 -206 -307 1 -122 76 -240 180 -287
128 -56 288 -6 362 112 39 62 53 111 53 184 -1 212 -201 365 -389 298z"/>
<path d="M6573 2540 c-57 -12 -97 -34 -143 -80 -50 -50 -77 -104 -89 -177 -48
-303 295 -493 503 -278 110 113 118 307 18 433 -61 76 -190 122 -289 102z"/>
</g>
</svg>
