<svg width="249" height="116" viewBox="0 0 249 116" fill="none" xmlns="http://www.w3.org/2000/svg">
<path d="M0 45H249V76H0V45Z" fill="black"/>
<ellipse cx="124.5" cy="76.5" rx="124.5" ry="17.5" fill="black"/>
<ellipse cx="124.5" cy="44.5" rx="124.5" ry="17.5" fill="url(#paint0_radial_72_2)"/>
<path d="M40.8336 45H46.0836V30.95H54.4336C60.4836 30.95 65.0836 26.3 65.0836 20.5C65.0836 14.6 60.4836 10 54.4336 10H40.8336V45ZM54.0336 14.6C57.4836 14.6 59.7836 17.2 59.7836 20.55C59.7836 23.85 57.4836 26.45 54.0336 26.45H46.0836V14.6H54.0336ZM93.402 32.25C93.402 24.9 87.302 18.95 79.702 18.95C72.102 18.95 66.002 24.9 66.002 32.25C66.002 39.6 72.102 45.6 79.702 45.6C87.302 45.6 93.402 39.6 93.402 32.25ZM88.352 32.25C88.352 37.2 84.502 41.1 79.702 41.1C74.902 41.1 71.052 37.2 71.052 32.25C71.052 27.35 74.902 23.45 79.702 23.45C84.502 23.45 88.352 27.35 88.352 32.25ZM123.822 32.25C123.822 24.9 117.722 18.95 110.122 18.95C102.522 18.95 96.4219 24.9 96.4219 32.25C96.4219 39.6 102.522 45.6 110.122 45.6C117.722 45.6 123.822 39.6 123.822 32.25ZM118.772 32.25C118.772 37.2 114.922 41.1 110.122 41.1C105.322 41.1 101.472 37.2 101.472 32.25C101.472 27.35 105.322 23.45 110.122 23.45C114.922 23.45 118.772 27.35 118.772 32.25ZM132.842 45V10H127.792V45H132.842ZM137.753 45H142.753V41.8C145.053 44.15 148.303 45.6 151.853 45.6C159.353 45.6 165.253 39.65 165.253 32.3C165.253 24.9 159.353 18.95 151.853 18.95C148.303 18.95 145.103 20.4 142.803 22.75V10H137.753V45ZM142.703 32.3C142.703 27.35 146.653 23.45 151.503 23.45C156.303 23.45 160.253 27.35 160.253 32.3C160.253 37.2 156.303 41.15 151.503 41.15C146.603 41.15 142.703 37.2 142.703 32.3ZM168.248 32.25C168.248 39.85 174.148 45.55 181.798 45.55C186.448 45.55 190.248 43.5 192.798 40.1L189.148 37.4C187.248 39.95 184.748 41.15 181.798 41.15C177.498 41.15 174.048 38.05 173.348 33.9H194.098V32.25C194.098 24.65 188.698 19 181.348 19C173.898 19 168.248 25.05 168.248 32.25ZM181.248 23.4C184.998 23.4 188.148 26 188.998 29.9H173.448C174.348 26 177.498 23.4 181.248 23.4ZM210.905 24V19.3H209.155C206.355 19.3 204.305 20.6 203.055 22.65V19.5H198.055V45H203.105V30.5C203.105 26.55 205.505 24 208.805 24H210.905Z" fill="black"/>
<circle cx="66" cy="94" r="22" fill="#AFAFAF"/>
<circle cx="66" cy="94" r="22" fill="#AFAFAF"/>
<circle cx="66" cy="94" r="22" fill="#AFAFAF"/>
<circle cx="66" cy="94" r="22" fill="white"/>
<circle cx="66" cy="94" r="19.0667" fill="black"/>
<circle cx="184" cy="94" r="22" fill="#AFAFAF"/>
<circle cx="184" cy="94" r="22" fill="#AFAFAF"/>
<circle cx="184" cy="94" r="22" fill="#AFAFAF"/>
<circle cx="184" cy="94" r="22" fill="white"/>
<path d="M203.067 94C203.067 104.53 194.53 113.067 184 113.067C173.47 113.067 164.933 104.53 164.933 94C164.933 83.4698 173.47 74.9333 184 74.9333C194.53 74.9333 203.067 83.4698 203.067 94Z" fill="black"/>
<defs>
<radialGradient id="paint0_radial_72_2" cx="0" cy="0" r="1" gradientUnits="userSpaceOnUse" gradientTransform="translate(124.5 44.5) rotate(90) scale(17.5 124.5)">
<stop stop-color="#AD00FF"/>
<stop stop-color="#F3728E"/>
<stop offset="0.0001" stop-color="#B210FF"/>
<stop offset="0.0002" stop-color="#E6B2FF"/>
<stop offset="1" stop-color="white"/>
</radialGradient>
</defs>
</svg>
