<?xml version="1.0" standalone="no"?>
<!DOCTYPE svg PUBLIC "-//W3C//DTD SVG 20010904//EN"
 "http://www.w3.org/TR/2001/REC-SVG-20010904/DTD/svg10.dtd">
<svg version="1.0" xmlns="http://www.w3.org/2000/svg"
 width="200.000000pt" height="200.000000pt" viewBox="0 0 200.000000 200.000000"
 preserveAspectRatio="xMidYMid meet">

<g transform="translate(0.000000,200.000000) scale(0.100000,-0.100000)"
fill="#000000" stroke="none">
<path d="M360 1223 c-8 -3 -25 -17 -38 -30 -12 -13 -27 -21 -34 -17 -7 5 -8 3
-3 -6 6 -9 4 -11 -4 -6 -12 8 -7 20 10 22 5 1 14 2 19 3 6 0 10 5 10 11 0 12
-26 2 -72 -28 -21 -13 -35 -28 -33 -33 3 -4 -3 -10 -14 -14 -11 -3 -22 -13
-25 -21 -4 -10 -2 -13 7 -8 6 4 2 -3 -10 -15 -45 -43 -20 -211 32 -211 8 0 15
-6 15 -14 0 -8 7 -16 15 -20 8 -3 15 -1 15 4 0 6 -6 10 -12 10 -7 0 -5 5 5 11
14 8 22 8 30 -1 9 -8 7 -9 -8 -4 -16 6 -14 1 8 -19 31 -30 77 -37 77 -11 0 10
-6 13 -17 10 -20 -6 -37 3 -40 21 -2 6 6 11 17 10 14 -1 16 -4 8 -14 -6 -8 -7
-13 0 -13 15 0 33 26 24 35 -4 5 -1 5 6 1 7 -4 9 -12 6 -18 -4 -6 -2 -8 4 -5
6 5 8 -1 4 -15 -3 -14 -2 -19 6 -14 18 11 14 43 -5 52 -30 13 -82 15 -102 4
-16 -8 -24 -4 -45 21 -14 17 -27 40 -28 52 -3 43 -3 115 1 111 2 -2 10 4 17
14 9 13 10 20 1 32 -10 12 -9 13 3 4 8 -6 27 -14 41 -17 23 -6 26 -4 24 18 -2
13 -6 29 -11 36 -4 7 -3 10 3 6 6 -4 23 0 39 8 31 15 101 32 122 29 6 -1 18
-2 25 -3 15 -1 -120 -91 -136 -90 -7 0 -3 4 8 9 18 8 17 9 -7 9 -21 1 -26 -3
-25 -20 1 -19 6 -21 48 -17 53 5 101 35 95 60 -2 10 1 15 9 12 13 -5 42 52 32
63 -9 8 -99 13 -117 6z m-170 -308 c0 -5 -5 -3 -10 5 -5 8 -10 20 -10 25 0 6
5 3 10 -5 5 -8 10 -19 10 -25z"/>
<path d="M1056 1134 c-8 -21 1 -34 24 -34 10 0 21 4 24 9 10 16 -5 41 -24 41
-10 0 -21 -7 -24 -16z"/>
<path d="M1650 975 l0 -165 25 0 c24 0 25 2 25 73 0 92 6 112 37 126 19 9 31
8 51 -1 26 -13 27 -17 30 -106 l3 -92 29 0 30 0 0 73 c0 39 -5 88 -10 108 -17
60 -78 87 -142 65 l-38 -14 0 49 c0 42 -3 49 -20 49 -19 0 -20 -7 -20 -165z"/>
<path d="M540 1095 c0 -31 -3 -35 -25 -35 -18 0 -25 -5 -25 -20 0 -15 7 -20
25 -20 24 0 25 -2 25 -72 0 -82 14 -117 51 -135 35 -17 101 -6 97 16 -2 11
-16 17 -41 19 -48 4 -59 25 -55 105 l3 62 38 3 c29 3 37 7 37 23 0 16 -7 19
-40 19 -39 0 -40 1 -40 35 0 31 -3 35 -25 35 -22 0 -25 -4 -25 -35z"/>
<path d="M1889 1105 c5 -5 11 -19 13 -30 3 -15 5 -12 9 12 4 26 2 31 -12 30
-11 -1 -15 -5 -10 -12z"/>
<path d="M1940 1085 c1 -26 2 -28 11 -12 8 14 8 22 0 30 -8 8 -11 3 -11 -18z"/>
<path d="M1970 1091 c-13 -26 -13 -28 5 -28 9 0 15 10 15 24 0 28 -6 29 -20 4z"/>
<path d="M1203 1059 c-87 -25 -109 -162 -37 -230 26 -25 90 -32 127 -15 25 12
23 -35 -3 -59 -19 -17 -41 -17 -95 -1 -11 4 -27 2 -35 -4 -13 -9 -12 -13 9
-30 48 -41 126 -37 167 7 23 25 24 31 24 179 0 147 -1 154 -20 154 -11 0 -20
-5 -20 -10 0 -7 -6 -7 -17 -2 -32 16 -67 20 -100 11z m88 -58 c31 -25 34 -98
5 -130 -46 -51 -116 -12 -116 64 0 75 58 110 111 66z"/>
<path d="M1461 1057 c-51 -18 -76 -58 -76 -122 0 -66 25 -104 82 -124 106 -38
195 73 149 184 -24 57 -92 85 -155 62z m72 -46 c28 -11 41 -40 39 -91 -2 -62
-70 -92 -112 -50 -41 41 -16 150 34 150 8 0 26 -4 39 -9z"/>
<path d="M695 1018 c68 -215 65 -208 91 -208 21 0 26 9 45 75 12 41 25 75 28
75 4 0 15 -33 26 -72 18 -66 23 -73 47 -76 26 -3 28 0 62 111 20 62 36 119 36
125 0 7 -10 12 -22 12 -20 0 -27 -12 -49 -83 l-26 -82 -25 80 c-22 71 -27 80
-48 80 -22 0 -27 -9 -49 -80 l-24 -80 -26 82 c-24 77 -28 83 -53 83 l-27 0 14
-42z"/>
<path d="M1050 935 l0 -125 30 0 30 0 0 125 0 125 -30 0 -30 0 0 -125z"/>
</g>
</svg>
