<?xml version="1.0" standalone="no"?>
<!DOCTYPE svg PUBLIC "-//W3C//DTD SVG 20010904//EN"
 "http://www.w3.org/TR/2001/REC-SVG-20010904/DTD/svg10.dtd">
<svg version="1.0" xmlns="http://www.w3.org/2000/svg"
 width="200.000000pt" height="200.000000pt" viewBox="0 0 200.000000 200.000000"
 preserveAspectRatio="xMidYMid meet">

<g transform="translate(0.000000,200.000000) scale(0.100000,-0.100000)"
fill="#000000" stroke="none">
<path d="M13 1763 c-10 -4 -13 -166 -13 -763 0 -682 2 -758 16 -764 20 -8
1948 -8 1968 0 14 6 16 82 16 764 0 682 -2 758 -16 764 -19 7 -1953 7 -1971
-1z m1937 -118 l0 -75 -950 0 -950 0 0 75 0 75 950 0 950 0 0 -75z m0 -745 l0
-620 -950 0 -950 0 0 620 0 620 950 0 950 0 0 -620z"/>
<path d="M590 1481 c-78 -25 -142 -84 -159 -148 -23 -82 -4 -205 45 -292 28
-50 30 -61 10 -61 -27 0 -174 -80 -219 -120 -83 -73 -126 -205 -95 -295 10
-32 22 -45 58 -62 24 -13 60 -23 80 -23 20 0 45 -6 56 -14 36 -26 138 -55 214
-62 98 -8 209 9 289 46 35 17 76 30 92 30 39 0 91 22 117 50 45 49 36 181 -20
265 -39 59 -125 123 -214 160 -38 16 -71 30 -73 32 -2 2 8 25 22 51 48 89 68
216 46 295 -27 97 -161 177 -249 148z m105 -60 c22 -10 50 -29 62 -42 42 -46
59 -129 26 -129 -35 1 -104 40 -156 89 -56 53 -71 54 -82 8 -7 -26 -63 -83
-72 -73 -11 10 10 68 35 98 28 32 93 68 127 68 11 0 38 -9 60 -19z m43 -208
c56 -18 59 -24 42 -83 -26 -95 -106 -169 -166 -154 -41 11 -100 75 -117 130
-32 101 -32 108 7 127 19 9 45 29 56 46 l22 29 52 -39 c28 -22 75 -47 104 -56z
m-148 -277 c39 -12 52 -12 85 0 22 7 48 11 59 8 16 -5 14 -10 -15 -40 -39 -40
-85 -52 -125 -31 -38 20 -68 53 -59 66 3 6 7 11 8 11 1 0 22 -6 47 -14z m-70
-68 c23 -23 37 -44 31 -46 -7 -2 -25 -15 -40 -28 -16 -13 -31 -24 -34 -24 -11
0 -19 70 -13 105 4 19 8 35 10 35 2 0 23 -19 46 -42z m284 26 c8 -20 8 -88 0
-108 -5 -13 -13 -11 -49 14 l-43 30 36 39 c43 44 48 47 56 25z m-389 -57 c0
-67 29 -139 58 -145 8 -2 23 10 32 26 17 29 53 55 107 79 23 10 34 8 79 -14
32 -16 59 -39 72 -60 11 -20 26 -33 35 -31 27 5 54 66 60 133 2 36 7 65 9 65
11 0 52 -26 90 -57 76 -61 114 -154 99 -237 -7 -39 -44 -66 -89 -66 -21 0 -25
6 -31 40 -5 31 -11 40 -26 40 -17 0 -20 -7 -20 -49 0 -48 -1 -49 -43 -69 -117
-55 -340 -53 -437 5 -27 15 -30 23 -30 65 0 40 -3 48 -19 48 -21 0 -31 -19
-31 -56 0 -19 -5 -24 -25 -24 -47 0 -83 27 -91 66 -20 105 40 212 156 278 25
14 45 26 45 26 0 0 0 -28 0 -63z"/>
<path d="M1217 1326 c-12 -31 18 -37 199 -34 171 3 179 4 179 23 0 19 -8 20
-186 23 -156 2 -188 0 -192 -12z"/>
<path d="M1215 1150 c-4 -6 -1 -17 5 -26 11 -12 57 -14 299 -12 278 3 286 4
286 23 0 19 -8 20 -292 23 -197 1 -294 -1 -298 -8z"/>
<path d="M1215 970 c-17 -27 16 -30 301 -30 287 0 294 0 294 20 0 20 -7 20
-294 20 -186 0 -297 -4 -301 -10z"/>
<path d="M1220 795 c-27 -32 -1 -35 296 -35 282 0 294 1 294 19 0 10 -7 22
-16 25 -9 3 -138 6 -289 6 -226 0 -275 -2 -285 -15z"/>
<path d="M1220 615 c-25 -31 3 -36 191 -33 176 3 184 4 184 23 0 19 -8 20
-181 23 -154 2 -183 0 -194 -13z"/>
</g>
</svg>
